<svg width="225" height="46" fill="none" xmlns="http://www.w3.org/2000/svg"><path d="M20.8 17.6l-1.2 4.2 7-4.4L22 33.8h4.7l6.8-24-12.7 7.8z" fill="#429CFF"/><path d="M13.8 27L12 33.8h9l3.6-13.9-10.8 7v.1z" fill="#1F2849"/><path d="M47.7 14.1h.8l.6-.4.4-.6a2.1 2.1 0 000-1.4c0-.2-.2-.4-.4-.5-.1-.1-.3-.3-.6-.3l-.8-.1h-1.3v3.3h1.3zm0-4.7c.6 0 1.2 0 1.6.2l1.2.6c.3.3.5.6.6 1l.3 1.2c0 .5-.1.9-.3 1.3l-.7 1-1.1.6a5 5 0 01-1.6.2h-1.3v3.3h-1.8V9.4h3.1zm8 6.6h-1.1c-.28.061-.549.162-.8.3a1 1 0 00-.4.3l-.1.4c0 .3 0 .5.2.6l.7.2c.3 0 .6 0 .9-.2l.7-.5V16h-.1zm-3.6-3a4 4 0 012.8-1c.3 0 .7 0 1 .2a2.2 2.2 0 011.3 1.3l.1 1v4.3h-1.1l-.1-.3-.2-.5-.5.4a3 3 0 01-1 .4 3 3 0 01-1.5 0c-.2 0-.4-.2-.6-.4l-.4-.5a2 2 0 010-1.3l.2-.5.5-.4.8-.4 1-.2 1.4-.1v-.4c0-.5-.1-.8-.3-1-.2-.2-.5-.3-.8-.3a2 2 0 00-1.1.3c-.266.101-.533.201-.8.3l-.2-.1-.2-.2-.3-.5V13zm12.6-.9l-3.6 8.5-.2.3h-1.6l1.3-2.6-2.7-6.2h1.4l.3.1.2.2 1.4 3.5.1.3v.4c.098-.234.198-.468.3-.7l1.4-3.5.1-.2h1.6v-.1zm5.2 5l.6.4a1.7 1.7 0 001.4 0c.2 0 .3-.2.5-.4l.3-.7.1-1c0-.8-.1-1.3-.3-1.6-.3-.4-.6-.5-1.1-.5-.3 0-.6 0-.8.2l-.7.6v3zm0-4.2c.3-.2.6-.5 1-.6.3-.2.6-.3 1-.3s.8.1 1.1.3c.3.1.6.3.8.6l.5 1 .2 1.4c0 .5 0 1-.2 1.5l-.7 1a2.6 2.6 0 01-2.6 1 2 2 0 01-.9-.5l-.3-.4-.1.5c0 .1 0 .2-.2.2l-.2.1h-1V9h1.5v3.8l.1.1zm11.7-.8l-3.7 8.5-.1.3h-1.6l1.3-2.6-2.7-6.2h1.4l.3.1.1.2 1.5 3.5v.3l.2.4c.064-.234.131-.467.2-.7l1.4-3.5.1-.2h1.6v-.1zm6.7 1.8c.3 0 .6 0 .9-.2l.6-.3.3-.5.1-.7c0-.4-.1-.8-.4-1-.3-.3-.8-.4-1.5-.4h-1v3h1v.1zm4.5 4.9h-1.6c-.3 0-.5-.1-.6-.4l-2-3-.3-.2h-1.1v3.6h-1.6V9.4h2.8c.7 0 1.2 0 1.7.2.4.1.8.3 1 .6.4.2.6.5.7.8.2.3.2.7.2 1.1a2.8 2.8 0 01-.5 1.7l-.6.6-1 .4a1.6 1.6 0 01.6.5l2.4 3.5h-.1zM97 16h-1.2c-.245.07-.48.17-.7.3a1 1 0 00-.5.3v.4c0 .3 0 .5.2.6l.6.2c.4 0 .6 0 .9-.2l.7-.5V16zm-3.7-3a4 4 0 012.8-1c.4 0 .7 0 1 .2a2.2 2.2 0 011.3 1.3l.1 1v4.3h-1l-.2-.3-.2-.5-.5.4a3 3 0 01-1 .4 3 3 0 01-1.5 0c-.2 0-.4-.2-.6-.4l-.4-.5a2 2 0 010-1.3l.2-.5.5-.4.8-.4 1-.2L97 15v-.4c0-.5-.1-.8-.3-1-.2-.2-.5-.3-.8-.3a2 2 0 00-1.1.3c-.233.101-.466.201-.7.3l-.3-.1-.2-.2-.3-.5V13zm11.6-.2l-.1.3-.2.3-3.1 4.2h3.3v1.2h-5.2V17.9l.2-.3 3.2-4.2h-3.2v-1.3h5v.7h.1zm4-.8c.5 0 1 .1 1.3.3a3.007 3.007 0 011.7 1.7l.3 1.5c0 .5-.1 1-.3 1.4a2.899 2.899 0 01-1.7 1.8l-1.3.2c-.5 0-1 0-1.4-.2a2.999 2.999 0 01-1.7-1.8c-.2-.4-.2-1-.2-1.4 0-.6 0-1 .2-1.5.2-.4.4-.8.7-1 .282-.3.622-.538 1-.7.4-.2.9-.3 1.4-.3zm0 5.7c.5 0 1-.2 1.2-.6.3-.4.4-1 .4-1.6 0-.8-.1-1.3-.4-1.7-.3-.4-.7-.5-1.2-.5-.6 0-1 .1-1.3.5-.2.4-.4 1-.4 1.7s.2 1.2.4 1.6c.3.4.7.6 1.3.6zm6-4.4l.7-1c.3-.2.7-.3 1-.3.4 0 .6 0 .8.2l-.1 1.2-.1.2h-1.3l-.4.3-.3.3-.2.5v4.1h-1.6v-6.7h1l.3.1.1.3.1.8zm5 3.8l.5.4a1.804 1.804 0 001.4 0c.2 0 .4-.2.5-.4l.3-.7.1-1v-1l-.3-.6a.999.999 0 00-.5-.4l-.5-.1c-.4 0-.7 0-.9.2l-.7.6v3h.1zm-.1-4c.2-.4.5-.6.9-.8a2.503 2.503 0 012.2 0c.3 0 .6.3.8.6l.5 1c.27.948.27 1.952 0 2.9l-.6 1.1c-.2.3-.6.6-1 .7-.3.2-.7.3-1 .3-.5 0-.8 0-1-.2-.3 0-.5-.2-.8-.5V21h-1.6v-8.9h1c.2 0 .4.1.4.3l.2.6v.1zm9.4 2.9H128c-.28.061-.549.162-.8.3a1.005 1.005 0 00-.4.3l-.1.4c0 .3 0 .5.2.6l.7.2a2.006 2.006 0 001.6-.7V16zm-3.7-3a4 4 0 012.7-1c.4 0 .8 0 1 .2a2.207 2.207 0 011.4 1.3l.1 1v4.3h-1.1l-.2-.3-.1-.5-.5.4a2.993 2.993 0 01-1 .4 3 3 0 01-1.5 0c-.2 0-.4-.2-.6-.4l-.4-.5a1.997 1.997 0 010-1.3c0-.2 0-.3.2-.5l.5-.4.8-.4 1-.2 1.4-.1v-.4c0-.5-.1-.8-.3-1-.2-.2-.5-.3-.9-.3a2 2 0 00-1 .3c-.266.101-.533.201-.8.3l-.3-.1-.1-.2-.3-.5V13zm12.6-.9l-3.6 8.5-.2.3h-1.7l1.3-2.6-2.7-6.2h1.4l.3.1.2.2 1.4 3.5v.3l.2.4c.064-.234.131-.467.2-.7l1.4-3.5.1-.2h1.6l.1-.1z" fill="#333"/><path d="M50.7 33l.2.1.5.5-1.3 1c-.5.2-1.1.3-1.8.3s-1.2-.1-1.7-.3a3.7 3.7 0 01-2.1-2.3c-.2-.6-.3-1.1-.3-1.8 0-.6 0-1.2.3-1.8l.8-1.4c.4-.4.8-.7 1.4-.9.5-.2 1-.3 1.7-.3a4.001 4.001 0 012.9 1l-.5.6v.1h-.5a3.7 3.7 0 00-1-.6h-1a3.001 3.001 0 00-1.1.1l-1 .7c-.3.3-.5.7-.6 1-.2.5-.2 1-.2 1.5s0 1 .2 1.4c.1.5.4.8.6 1.1l1 .7 1.1.2h.7a2.9 2.9 0 001-.4l.5-.4h.2V33zm5-1l-1.2.2-.9.2-.4.4-.2.4.1.4c0 .2.1.3.2.3l.3.2h.9l.5-.2.4-.2.4-.4v-1.2l-.1-.1zm-3.4-2.4l1-.7 1.4-.3c.3 0 .6 0 .9.2a1.9 1.9 0 011 1.2c.2.3.2.6.2 1v3.8h-.7l-.1-.3-.2-.5-.4.4a2.6 2.6 0 01-1 .5 2.8 2.8 0 01-1.4-.1c-.2 0-.3-.2-.5-.3l-.4-.5v-.7l.1-.7.6-.6 1.2-.4 1.8-.2v-.6c0-.5-.1-.8-.4-1-.2-.3-.5-.4-.8-.4a1.9 1.9 0 00-1.2.3 7.07 7.07 0 00-.3.2l-.3.1h-.2v-.2l-.2-.3-.1.1zm7.1.3l.7-1c.3-.2.7-.3 1-.3h.4l.4.2-.1.8-.2.1h-.2a1.7 1.7 0 00-1 0l-.3.3c-.1.1-.3.2-.3.4l-.3.6v3.8h-1v-6h.8v.2l.1 1v-.1zm7.1.3l-.6-.6-.8-.2c-.6 0-1 .3-1.3.7-.3.4-.5 1-.5 1.7l.1 1 .3.7.5.4.7.1c.3 0 .6 0 .9-.2l.7-.7v-3 .1zm1-4.2v8.8H67c-.2 0-.3 0-.3-.2l-.1-.8c-.3.4-.6.6-1 .8-.2.2-.6.3-1 .3s-.7 0-1-.2a2 2 0 01-.7-.6l-.5-1a5 5 0 010-2.6l.5-1a2.4 2.4 0 012-.9 2.2 2.2 0 011.6.7V26h1zm5.3 3.7l-.2.2-.2-.1a3.6 3.6 0 00-.7-.3 1.8 1.8 0 00-1 0l-.4.2-.2.3v.7l.4.3.5.2c.406.115.807.248 1.2.4.2 0 .3.2.5.3a1.3 1.3 0 01.5 1c0 .3 0 .6-.2.8 0 .3-.2.5-.4.6l-.8.4c-.32.123-.657.19-1 .2-.4 0-.7 0-1-.2a3 3 0 01-1-.5l.3-.4.1-.2h.4l.3.3.4.1.6.1h.6l.4-.3.2-.3v-.8a1 1 0 00-.4-.3l-.5-.2-1.7-.7-.4-.4-.1-.7a1.6 1.6 0 01.6-1.2c.1-.2.4-.3.6-.4l1-.2a2.8 2.8 0 011.9.7l-.3.4zm1.6 6.6V36c.143-.159.277-.326.4-.5a2 2 0 00.2-.7c-.2 0-.4 0-.5-.2a.8.8 0 01-.2-.5.7.7 0 01.7-.7h.3l.2.2.2.3v.9l-.3.6a3.3 3.3 0 01-.8 1l-.2-.1zm13-10.1v8.6h-.7l-.2-.2-5-6.5c.008.2.008.4 0 .6v6.1h-1v-8.6h.6a.6.6 0 01.2 0l.1.1.1.1 5 6.5V26.2h1-.1zm5.9 4.9l-.1-.7a1.4 1.4 0 00-1.5-1c-.5 0-.9.2-1.2.5a2 2 0 00-.5 1.2h3.3zm.9 2.8a2.001 2.001 0 01-.5.5 3 3 0 01-1.2.4h-1.9a2.6 2.6 0 01-1.5-1.7 4.1 4.1 0 010-2.6l.5-.9c.3-.3.6-.5 1-.6a2.9 2.9 0 012.1 0c.3 0 .6.2.8.4l.6.9.2 1.1v.4H90l.1 1 .4.8.6.4.8.1a2.3 2.3 0 001.2-.3l.3-.1.3-.1h.2l.3.4v-.1zm3.2 1c-.5 0-.9-.1-1.1-.4-.3-.3-.4-.7-.4-1.2v-3.7H95V29l1-.2.2-1.8v-.2h.8v2h1.6v.8h-1.7v3.7c0 .2 0 .4.2.5 0 .2.2.2.4.2a.9.9 0 00.5-.1l.2-.1h.4l.3.5a2 2 0 01-.7.5l-.8.1zm3.5-1.6l.6.6.8.2c.6 0 1-.2 1.3-.6.3-.5.5-1 .5-1.9 0-.7-.1-1.2-.4-1.6-.3-.3-.7-.5-1.2-.5-.3 0-.6 0-.9.2l-.7.7v3-.1zm0-3.7l.9-.7c.3-.2.7-.3 1-.3.4 0 .8 0 1 .2l.8.6.4 1 .2 1.2c0 .5 0 1-.2 1.3-.102.362-.272.7-.5 1a2.402 2.402 0 01-2 1c-.3 0-.7 0-1-.2l-.7-.7v.6c0 .1-.1.2-.3.2h-.7V26h1.1v3.6zm9 2.5h-1.3l-.9.3-.4.4-.2.4v.4l.3.3.3.2h.9l.5-.2.4-.2.3-.4v-1.2h.1zm-3.5-2.5l1-.7c.5-.2.9-.3 1.4-.3.3 0 .6 0 .9.2a1.897 1.897 0 011 1.2l.2 1v3.8h-.7l-.2-.3V34l-.6.4a2.597 2.597 0 01-1 .5 2.8 2.8 0 01-1.3-.1c-.2 0-.4-.2-.5-.3l-.4-.5-.1-.7c0-.3 0-.5.2-.7l.6-.6 1.2-.4 1.7-.2v-.6c0-.5 0-.8-.3-1-.2-.3-.5-.4-.9-.4a1.9 1.9 0 00-1 .3 7.1 7.1 0 00-.4.2l-.3.1h-.2l-.1-.2-.2-.3v.1zm7.1 0a3.594 3.594 0 011-.7 2.3 2.3 0 011-.3c.4 0 .7 0 1 .2l.6.5c.1.2.3.4.3.7l.2 1v3.8h-1.1v-3.9c0-.4-.1-.8-.3-1-.2-.3-.5-.4-1-.4-.3 0-.6 0-.9.2a2.995 2.995 0 00-.7.6v4.5h-1v-6h.6l.2.1.1.7zm6.8-3.6v5.2h.4l.2-.2 2-2 .1-.2h1.3l-2.3 2.3-.4.3.2.2.2.2 2.4 3h-1.2l-.2-.2-2-2.5-.2-.2h-.5v2.9h-1.1V26h1.1zm6.1 2.7v6.1h-1v-6h1v-.1zm.3-1.9l-.1.3-.2.2-.2.2a.7.7 0 01-.6 0 .802.802 0 01-.4-.4.706.706 0 010-.6l.1-.2.3-.2a.7.7 0 01.6 0l.2.2.2.2v.3h.1zm2.5 2.8c.261-.28.565-.516.9-.7.336-.19.714-.294 1.1-.3.3 0 .6 0 .9.2l.6.5.4.7.1 1v3.8h-1v-3.9c0-.4-.1-.8-.4-1-.2-.3-.5-.4-1-.4-.2 0-.5 0-.8.2a3.002 3.002 0 00-.8.6v4.5h-1v-6h.6l.3.1v.7h.1zm7.8 2.2h.6l.4-.3.2-.4.1-.5c0-.4-.1-.7-.3-.9-.3-.2-.6-.3-1-.3s-.8.1-1 .3c-.2.2-.3.5-.3 1v.4a1.107 1.107 0 00.7.6l.6.1zm2 3.3l-.2-.3-.4-.2a8.599 8.599 0 00-1.7-.2l-.6-.1-.6.4a.803.803 0 000 1l.3.2.5.2.8.1h.7l.6-.3c.2 0 .3-.2.4-.3l.1-.5h.1zm1-6.1v.4s0 .2-.3.2l-.6.1.2.9a1.896 1.896 0 01-1.4 1.8 3 3 0 01-1.7 0 1.01 1.01 0 00-.3.3l-.1.3c0 .1 0 .2.2.3l.4.1.7.1c.501.01 1.002.044 1.5.1l.7.3.4.4.2.7c0 .2 0 .5-.2.7a2 2 0 01-.6.7c-.2.2-.5.3-.9.4l-1.2.2-1.1-.1-.8-.4c-.3-.1-.4-.3-.5-.5-.2-.2-.2-.4-.2-.6 0-.3 0-.6.3-.8.2-.2.4-.4.8-.5-.2 0-.4-.2-.5-.3a.903.903 0 01-.1-.5V33c0-.1 0-.2.2-.3.127-.202.298-.373.5-.5l-.7-.7-.2-1c0-.2 0-.5.2-.7 0-.3.2-.5.4-.6l.8-.4a3 3 0 012.2.2h1.7zm1 7.3V36c.143-.159.277-.326.4-.5.144-.212.246-.45.3-.7h-.1c-.2 0-.4 0-.5-.2a.803.803 0 01-.2-.5.701.701 0 01.7-.7h.3l.3.2.1.3v.9l-.3.6c-.199.382-.47.722-.8 1l-.2-.1zm17.1-10.1l-2.7 8.6h-1l-2.2-6.6a6.873 6.873 0 01-.1-.4c-.03.134-.063.267-.1.4l-2.2 6.6h-1l-2.7-8.6h1.2l.1.3 1.8 6c.082.229.149.463.2.7.028-.234.062-.467.1-.7l2-6 .2-.2.3-.1h.6l.1.3 2 6 .1.3.1.4a8.25 8.25 0 01.1-.7l1.8-6s0-.2.2-.2l.2-.1h1-.1zm3.7 5.9h-1.3l-.8.3c-.3.1-.4.2-.5.4l-.2.4.1.4c0 .2.1.3.2.3l.3.2h1l.4-.2.4-.2.4-.4v-1.2zm-3.5-2.5c.3-.3.7-.6 1.1-.7.4-.2.8-.3 1.3-.3.3 0 .6 0 .9.2a1.897 1.897 0 011 1.2c.2.3.2.6.2 1v3.8h-.7l-.1-.3-.2-.5-.4.4a2.597 2.597 0 01-1 .5 2.8 2.8 0 01-1.3-.1c-.3 0-.4-.2-.6-.3l-.4-.5v-.7l.1-.7.7-.6c.2-.2.6-.3 1.1-.4l1.8-.2v-.6c0-.5-.1-.8-.3-1-.2-.3-.5-.4-1-.4a1.9 1.9 0 00-1 .3 7.1 7.1 0 00-.4.2l-.3.1h-.2v-.2l-.3-.3v.1zm7.2-3.6v8.8h-1V26h1zm2.9 0v8.8h-1V26h1zm5.8 5.1l-.1-.7a1.4 1.4 0 00-1.5-1c-.5 0-.9.2-1.2.5a2.002 2.002 0 00-.6 1.2h3.4zm.8 2.8a1.97 1.97 0 01-.4.5 3 3 0 01-1.3.4h-.6l-1.2-.1A2.603 2.603 0 01170 33a4.101 4.101 0 010-2.6c0-.3.3-.6.5-.9.3-.3.6-.5 1-.6a2.9 2.9 0 012.1 0c.3 0 .6.2.8.4l.5.9c.2.3.2.7.2 1.1v.4h-4.2v1l.5.8c.1.2.3.3.6.4l.7.1a2.3 2.3 0 001.2-.3l.4-.1.2-.1h.2l.3.4zm3.3 1c-.5 0-.9-.1-1.1-.4-.3-.3-.4-.7-.4-1.2v-3.7h-.9V29l1-.2.2-1.8v-.2h.7v2h1.8v.8h-1.8v3.7l.2.5c.1.2.3.2.5.2a.899.899 0 00.5-.1l.2-.1h.2l.3.5a1.996 1.996 0 01-.6.5l-.8.1zm7.5-4.3l-1 .8a1.892 1.892 0 00-.1 1.7c.185.374.507.66.9.8l.6.1a2.904 2.904 0 002.2-.9l-2.6-2.5zm5.6 4.2H190l-.2-.2-.9-.9c-.3.4-.8.7-1.3.9a4.001 4.001 0 01-1.6.3 2.8 2.8 0 01-1.7-.6c-.3-.2-.5-.5-.6-.8-.2-.3-.2-.6-.2-1a2.297 2.297 0 01.5-1.5l.6-.6.7-.4-.5-.9a2.405 2.405 0 010-1.7c0-.3.2-.5.4-.7l.8-.4a2.6 2.6 0 011.8 0c.3 0 .5.2.7.4.2.1.3.3.4.6l.2.6-.7.2c-.1 0-.2 0-.3-.2a1.402 1.402 0 00-.3-.6 1.2 1.2 0 00-.9-.4l-.5.1-.4.3-.3.4v.5c-.031.27.003.545.1.8l.3.4.4.4 2.4 2.5c.313-.52.517-1.099.6-1.7v-.2h1a4.594 4.594 0 01-.8 2.6l1.8 1.8h-.1zm7.6-1l1-.1.6-.5.5-.8.1-1v-5.2h1.2v5.2c0 .5-.1 1-.3 1.4a3.19 3.19 0 01-1.7 1.8 3.696 3.696 0 01-2.9 0 3.199 3.199 0 01-1.7-1.8 4.009 4.009 0 01-.3-1.4v-5.2h1.2v5.2l.1 1 .5.8a2.1 2.1 0 001.7.7v-.1zm8-3.1c.3 0 .6 0 .9-.2l.6-.3.4-.6.1-.7c0-.6-.1-1-.5-1.3-.3-.3-.8-.5-1.5-.5h-1.4v3.7h1.4v-.1zm0-4.5c.5 0 1 0 1.4.2l1 .5c.3.3.5.5.6.9l.2 1c0 .5 0 .8-.2 1.2l-.6.8c-.3.3-.6.5-1 .6l-1.4.2h-1.4v3.2h-1v-8.6h2.5-.1zm5.8 8.6h-1.1v-8.6h1.1v8.6z" fill="#7B8199"/></svg>